<?xml version="1.0" encoding="UTF-8"?>
<svg id="Layer_2" xmlns="http://www.w3.org/2000/svg" viewBox="0 0 101.76 132.96">
  <defs>
    <style>
      .cls-1 {
        fill: #ffc801;
      }

      .cls-2 {
        fill: #af5858;
      }

      .cls-3 {
        fill: #ff9600;
      }
    </style>
  </defs>
  <g id="Layer_2-2" data-name="Layer_2">
    <ellipse class="cls-2" cx="50.88" cy="117.64" rx="39.57" ry="15.32"/>
    <circle class="cls-3" cx="50.88" cy="72.72" r="50.88"/>
    <path class="cls-3" d="M41.62,4.39L15.05,37c-6.36,7.8-.81,19.48,9.25,19.48h53.16c10.06,0,15.61-11.68,9.25-19.48L60.13,4.39c-4.78-5.86-13.73-5.86-18.51,0Z"/>
    <path class="cls-3" d="M0,19.22v49.42c0,5.21,4.22,9.43,9.43,9.43h74.35c9.34,0,13-12.12,5.22-17.29L14.65,11.36c-6.27-4.17-14.65.33-14.65,7.86Z"/>
    <circle class="cls-1" cx="50.88" cy="77.94" r="18.96"/>
    <path class="cls-1" d="M46.63,54.83l-8.65,9.32c-3.44,3.71-.81,9.74,4.25,9.74h17.3c5.06,0,7.69-6.03,4.25-9.74l-8.65-9.32c-2.29-2.47-6.2-2.47-8.5,0Z"/>
  </g>
</svg>